HIERARCHY
ROOT mixamorig:Hips
{
	OFFSET -0.000008 104.274872 1.554316
	CHANNELS 6 Xposition Yposition Zposition Xrotation Yrotation Zrotation
	JOINT mixamorig:Spine
	{
		OFFSET -0.000005 10.181595 0.131519
		CHANNELS 6 Xposition Yposition Zposition Xrotation Yrotation Zrotation
		JOINT mixamorig:Spine1
		{
			OFFSET -0.000000 9.893959 -1.470707
			CHANNELS 6 Xposition Yposition Zposition Xrotation Yrotation Zrotation
			JOINT mixamorig:Spine2
			{
				OFFSET -0.000000 9.220757 -1.370641
				CHANNELS 6 Xposition Yposition Zposition Xrotation Yrotation Zrotation
				JOINT mixamorig:Neck
				{
					OFFSET 0.000001 16.740417 -2.049036
					CHANNELS 6 Xposition Yposition Zposition Xrotation Yrotation Zrotation
					JOINT mixamorig:Head
					{
						OFFSET 0.000000 9.617874 1.685006
						CHANNELS 6 Xposition Yposition Zposition Xrotation Yrotation Zrotation
						JOINT mixamorig:HeadTop_End
						{
							OFFSET 0.000002 22.037354 7.501101
							CHANNELS 6 Xposition Yposition Zposition Xrotation Yrotation Zrotation
							End Site
							{
								OFFSET 0.000168 2310.654297 -282.823242
							}
						}
					}
				}
				JOINT mixamorig:RightShoulder
				{
					OFFSET -4.569970 11.014908 -2.160885
					CHANNELS 6 Xposition Yposition Zposition Xrotation Yrotation Zrotation
					JOINT mixamorig:RightArm
					{
						OFFSET -10.592851 -0.524811 -2.232101
						CHANNELS 6 Xposition Yposition Zposition Xrotation Yrotation Zrotation
						JOINT mixamorig:RightForeArm
						{
							OFFSET -27.841511 0.000031 -0.000004
							CHANNELS 6 Xposition Yposition Zposition Xrotation Yrotation Zrotation
							JOINT mixamorig:RightHand
							{
								OFFSET -28.328831 -0.000015 0.000015
								CHANNELS 6 Xposition Yposition Zposition Xrotation Yrotation Zrotation
								JOINT mixamorig:RightHandThumb1
								{
									OFFSET -2.464806 -1.573990 2.681852
									CHANNELS 6 Xposition Yposition Zposition Xrotation Yrotation Zrotation
									JOINT mixamorig:RightHandThumb2
									{
										OFFSET -3.215179 -1.872803 1.924282
										CHANNELS 6 Xposition Yposition Zposition Xrotation Yrotation Zrotation
										JOINT mixamorig:RightHandThumb3
										{
											OFFSET -2.654831 -1.527969 1.512609
											CHANNELS 6 Xposition Yposition Zposition Xrotation Yrotation Zrotation
											JOINT mixamorig:RightHandThumb4
											{
												OFFSET -2.018814 -1.152008 1.108052
												CHANNELS 6 Xposition Yposition Zposition Xrotation Yrotation Zrotation
												End Site
												{
													OFFSET -188.809540 -114.533607 132.431396
												}
											}
										}
									}
								}
								JOINT mixamorig:RightHandIndex1
								{
									OFFSET -9.108284 -0.517868 2.259835
									CHANNELS 6 Xposition Yposition Zposition Xrotation Yrotation Zrotation
									JOINT mixamorig:RightHandIndex2
									{
										OFFSET -3.699989 0.000000 0.001215
										CHANNELS 6 Xposition Yposition Zposition Xrotation Yrotation Zrotation
										JOINT mixamorig:RightHandIndex3
										{
											OFFSET -2.850006 0.000031 -0.000522
											CHANNELS 6 Xposition Yposition Zposition Xrotation Yrotation Zrotation
											JOINT mixamorig:RightHandIndex4
											{
												OFFSET -2.772186 -0.000015 -0.000020
												CHANNELS 6 Xposition Yposition Zposition Xrotation Yrotation Zrotation
												End Site
												{
													OFFSET -277.218445 0.000000 -0.050231
												}
											}
										}
									}
								}
								JOINT mixamorig:RightHandMiddle1
								{
									OFFSET -9.532516 -0.000031 -0.000023
									CHANNELS 6 Xposition Yposition Zposition Xrotation Yrotation Zrotation
									JOINT mixamorig:RightHandMiddle2
									{
										OFFSET -3.700005 -0.000015 0.003713
										CHANNELS 6 Xposition Yposition Zposition Xrotation Yrotation Zrotation
										JOINT mixamorig:RightHandMiddle3
										{
											OFFSET -2.949974 0.000015 -0.002054
											CHANNELS 6 Xposition Yposition Zposition Xrotation Yrotation Zrotation
											JOINT mixamorig:RightHandMiddle4
											{
												OFFSET -2.946640 0.000000 -0.000156
												CHANNELS 6 Xposition Yposition Zposition Xrotation Yrotation Zrotation
												End Site
												{
													OFFSET -294.664337 0.000000 -0.113670
												}
											}
										}
									}
								}
								JOINT mixamorig:RightHandRing1
								{
									OFFSET -9.103600 -0.043076 -1.865134
									CHANNELS 6 Xposition Yposition Zposition Xrotation Yrotation Zrotation
									JOINT mixamorig:RightHandRing2
									{
										OFFSET -3.379288 0.000000 -0.001055
										CHANNELS 6 Xposition Yposition Zposition Xrotation Yrotation Zrotation
										JOINT mixamorig:RightHandRing3
										{
											OFFSET -2.889687 -0.000015 0.000379
											CHANNELS 6 Xposition Yposition Zposition Xrotation Yrotation Zrotation
											JOINT mixamorig:RightHandRing4
											{
												OFFSET -2.638809 -0.000015 0.000941
												CHANNELS 6 Xposition Yposition Zposition Xrotation Yrotation Zrotation
												End Site
												{
													OFFSET -263.880371 0.000000 0.516020
												}
											}
										}
									}
								}
								JOINT mixamorig:RightHandPinky1
								{
									OFFSET -8.076683 -0.486710 -3.806280
									CHANNELS 6 Xposition Yposition Zposition Xrotation Yrotation Zrotation
									JOINT mixamorig:RightHandPinky2
									{
										OFFSET -3.600014 -0.000015 -0.003747
										CHANNELS 6 Xposition Yposition Zposition Xrotation Yrotation Zrotation
										JOINT mixamorig:RightHandPinky3
										{
											OFFSET -2.099983 0.000000 -0.005739
											CHANNELS 6 Xposition Yposition Zposition Xrotation Yrotation Zrotation
											JOINT mixamorig:RightHandPinky4
											{
												OFFSET -2.115768 -0.000031 -0.003680
												CHANNELS 6 Xposition Yposition Zposition Xrotation Yrotation Zrotation
												End Site
												{
													OFFSET -211.577087 0.000000 -0.350686
												}
											}
										}
									}
								}
							}
						}
					}
				}
				JOINT mixamorig:LeftShoulder
				{
					OFFSET 4.570447 11.014725 -2.160855
					CHANNELS 6 Xposition Yposition Zposition Xrotation Yrotation Zrotation
					JOINT mixamorig:LeftArm
					{
						OFFSET 10.592371 -0.524597 -2.232119
						CHANNELS 6 Xposition Yposition Zposition Xrotation Yrotation Zrotation
						JOINT mixamorig:LeftForeArm
						{
							OFFSET 27.841532 -0.000031 0.000026
							CHANNELS 6 Xposition Yposition Zposition Xrotation Yrotation Zrotation
							JOINT mixamorig:LeftHand
							{
								OFFSET 28.328846 -0.000061 0.000022
								CHANNELS 6 Xposition Yposition Zposition Xrotation Yrotation Zrotation
								JOINT mixamorig:LeftHandThumb1
								{
									OFFSET 2.466141 -1.576172 2.681732
									CHANNELS 6 Xposition Yposition Zposition Xrotation Yrotation Zrotation
									JOINT mixamorig:LeftHandThumb2
									{
										OFFSET 3.217812 -1.872070 1.916482
										CHANNELS 6 Xposition Yposition Zposition Xrotation Yrotation Zrotation
										JOINT mixamorig:LeftHandThumb3
										{
											OFFSET 2.656029 -1.528778 1.514513
											CHANNELS 6 Xposition Yposition Zposition Xrotation Yrotation Zrotation
											JOINT mixamorig:LeftHandThumb4
											{
												OFFSET 2.020889 -1.154053 1.115139
												CHANNELS 6 Xposition Yposition Zposition Xrotation Yrotation Zrotation
												End Site
												{
													OFFSET 190.885437 -115.081749 130.048782
												}
											}
										}
									}
								}
								JOINT mixamorig:LeftHandIndex1
								{
									OFFSET 9.109314 -0.518021 2.259871
									CHANNELS 6 Xposition Yposition Zposition Xrotation Yrotation Zrotation
									JOINT mixamorig:LeftHandIndex2
									{
										OFFSET 3.699989 0.000000 -0.000322
										CHANNELS 6 Xposition Yposition Zposition Xrotation Yrotation Zrotation
										JOINT mixamorig:LeftHandIndex3
										{
											OFFSET 2.850006 0.000000 0.000352
											CHANNELS 6 Xposition Yposition Zposition Xrotation Yrotation Zrotation
											JOINT mixamorig:LeftHandIndex4
											{
												OFFSET 2.774864 -0.000031 -0.000027
												CHANNELS 6 Xposition Yposition Zposition Xrotation Yrotation Zrotation
												End Site
												{
													OFFSET 277.486267 0.000000 -0.009857
												}
											}
										}
									}
								}
								JOINT mixamorig:LeftHandMiddle1
								{
									OFFSET 9.533394 0.000061 0.000044
									CHANNELS 6 Xposition Yposition Zposition Xrotation Yrotation Zrotation
									JOINT mixamorig:LeftHandMiddle2
									{
										OFFSET 3.699989 -0.000015 -0.000231
										CHANNELS 6 Xposition Yposition Zposition Xrotation Yrotation Zrotation
										JOINT mixamorig:LeftHandMiddle3
										{
											OFFSET 2.949997 -0.000015 -0.000059
											CHANNELS 6 Xposition Yposition Zposition Xrotation Yrotation Zrotation
											JOINT mixamorig:LeftHandMiddle4
											{
												OFFSET 2.952896 0.000031 0.000063
												CHANNELS 6 Xposition Yposition Zposition Xrotation Yrotation Zrotation
												End Site
												{
													OFFSET 295.289337 0.000000 0.022810
												}
											}
										}
									}
								}
								JOINT mixamorig:LeftHandRing1
								{
									OFFSET 9.104523 -0.042999 -1.865074
									CHANNELS 6 Xposition Yposition Zposition Xrotation Yrotation Zrotation
									JOINT mixamorig:LeftHandRing2
									{
										OFFSET 3.150009 -0.000031 0.000043
										CHANNELS 6 Xposition Yposition Zposition Xrotation Yrotation Zrotation
										JOINT mixamorig:LeftHandRing3
										{
											OFFSET 2.949982 -0.000015 0.000040
											CHANNELS 6 Xposition Yposition Zposition Xrotation Yrotation Zrotation
											JOINT mixamorig:LeftHandRing4
											{
												OFFSET 2.644348 0.000000 0.000057
												CHANNELS 6 Xposition Yposition Zposition Xrotation Yrotation Zrotation
												End Site
												{
													OFFSET 264.434631 0.000000 0.012105
												}
											}
										}
									}
								}
								JOINT mixamorig:LeftHandPinky1
								{
									OFFSET 8.077789 -0.486847 -3.806259
									CHANNELS 6 Xposition Yposition Zposition Xrotation Yrotation Zrotation
									JOINT mixamorig:LeftHandPinky2
									{
										OFFSET 3.599953 0.000031 0.014727
										CHANNELS 6 Xposition Yposition Zposition Xrotation Yrotation Zrotation
										JOINT mixamorig:LeftHandPinky3
										{
											OFFSET 2.100021 0.000015 0.007705
											CHANNELS 6 Xposition Yposition Zposition Xrotation Yrotation Zrotation
											JOINT mixamorig:LeftHandPinky4
											{
												OFFSET 2.125504 0.000031 0.007517
												CHANNELS 6 Xposition Yposition Zposition Xrotation Yrotation Zrotation
												End Site
												{
													OFFSET 212.550781 0.000000 0.625752
												}
											}
										}
									}
								}
							}
						}
					}
				}
			}
		}
	}
	JOINT mixamorig:RightUpLeg
	{
		OFFSET -8.207787 -6.751648 -1.599560
		CHANNELS 6 Xposition Yposition Zposition Xrotation Yrotation Zrotation
		JOINT mixamorig:RightLeg
		{
			OFFSET -0.000002 -44.370117 0.345942
			CHANNELS 6 Xposition Yposition Zposition Xrotation Yrotation Zrotation
			JOINT mixamorig:RightFoot
			{
				OFFSET 0.000003 -44.423679 -3.043532
				CHANNELS 6 Xposition Yposition Zposition Xrotation Yrotation Zrotation
				JOINT mixamorig:RightToeBase
				{
					OFFSET -0.000002 -8.728671 10.710558
					CHANNELS 6 Xposition Yposition Zposition Xrotation Yrotation Zrotation
					JOINT mixamorig:RightToe_End
					{
						OFFSET -0.000001 -0.000679 9.278119
						CHANNELS 6 Xposition Yposition Zposition Xrotation Yrotation Zrotation
						End Site
						{
							OFFSET 0.000000 -0.067690 927.812134
						}
					}
				}
			}
		}
	}
	JOINT mixamorig:LeftUpLeg
	{
		OFFSET 8.207793 -6.751686 -1.599556
		CHANNELS 6 Xposition Yposition Zposition Xrotation Yrotation Zrotation
		JOINT mixamorig:LeftLeg
		{
			OFFSET -0.000004 -44.370014 0.346954
			CHANNELS 6 Xposition Yposition Zposition Xrotation Yrotation Zrotation
			JOINT mixamorig:LeftFoot
			{
				OFFSET -0.000001 -44.423672 -3.044401
				CHANNELS 6 Xposition Yposition Zposition Xrotation Yrotation Zrotation
				JOINT mixamorig:LeftToeBase
				{
					OFFSET -0.000002 -8.728669 10.710558
					CHANNELS 6 Xposition Yposition Zposition Xrotation Yrotation Zrotation
					JOINT mixamorig:LeftToe_End
					{
						OFFSET -0.000003 -0.000679 9.278133
						CHANNELS 6 Xposition Yposition Zposition Xrotation Yrotation Zrotation
						End Site
						{
							OFFSET 0.000000 -0.068021 927.813477
						}
					}
				}
			}
		}
	}
}
MOTION
Frames: 3
Frame Time: 0.033333
0.000006 104.270477 1.554256 0.000010 0.000003 -0.000113 -0.000005 10.181587 0.131522 0.000001 -0.000003 0.000084 -0.000000 9.893967 -1.470711 0.000001 0.000000 -0.000000 -0.000000 9.220802 -1.370642 0.000000 -0.000000 -0.000000 0.000001 16.740433 -2.049030 0.000000 -0.000000 -0.000000 0.000000 9.617859 1.685014 0.000000 0.000000 0.000000 0.000002 22.037384 7.501101 0.000000 -0.000000 0.000000 -4.569968 11.014880 -2.160881 0.000008 0.000001 -0.000038 -10.592880 -0.524748 -2.231937 71.256843 24.610029 -17.769973 -27.841518 0.000014 0.000539 -52.773986 112.507525 73.195360 -28.328814 0.000022 0.000019 -0.000323 -0.000045 0.000007 -2.464427 -1.573807 2.682327 -45.867432 -159.441450 -5.363939 -3.215237 -1.872497 1.924613 146.719840 33.724674 32.909515 -2.654979 -1.527884 1.513069 149.247515 27.509458 -27.913001 -2.018830 -1.151991 1.108067 -0.000005 -0.000003 0.000000 -9.108408 -0.517556 2.260142 104.898646 15.509389 -20.150892 -3.700052 0.000318 0.001533 101.805110 13.198347 -16.176499 -2.850101 0.000377 -0.000230 100.264650 10.596911 -12.671580 -2.772164 -0.000002 -0.000018 -0.000001 0.000001 0.000000 -9.532621 0.000267 0.000271 98.975643 16.646547 -19.598784 -3.700070 0.000320 0.004001 98.257127 12.648031 -14.486368 -2.950068 0.000340 -0.001782 100.713748 11.613085 -13.985942 -2.946618 0.000003 -0.000154 -0.000000 0.000000 0.000000 -9.103731 -0.042775 -1.864849 97.856141 18.927651 -21.605012 -3.379334 0.000312 -0.000789 97.402500 9.560901 -10.895677 -2.889757 0.000360 0.000691 105.009644 6.379716 -8.368641 -2.638808 0.000001 0.000940 0.000001 -0.000000 -0.000001 -8.076773 -0.486404 -3.806002 91.180491 19.701385 -19.946253 -3.600038 0.000284 -0.003493 94.111933 8.172565 -8.399057 -2.100005 0.000316 -0.005460 98.043206 3.829711 -4.162501 -2.115790 -0.000024 -0.003678 0.000002 0.000000 -0.000004 4.570446 11.014691 -2.160851 -0.000018 0.000010 -0.000021 10.592518 -0.524522 -2.232397 66.325740 -60.230493 41.516332 27.841702 -0.000082 -0.000072 243.421822 -68.754405 264.173931 28.328835 -0.000029 0.000025 0.000020 -0.000088 -0.000001 2.466149 -1.576159 2.681859 131.633332 156.006766 -167.008999 3.217820 -1.872000 1.916543 -83.434709 39.787211 34.032930 2.655998 -1.528833 1.514605 36.640195 131.479038 -94.946979 2.020906 -1.154089 1.115148 -0.000000 0.000001 0.000002 9.109274 -0.517774 2.260100 -121.256963 -7.690731 -13.606089 3.699974 0.000247 -0.000090 236.919154 -6.099137 348.750880 2.849980 0.000296 0.000584 237.140452 -5.723771 349.511271 2.774888 -0.000047 -0.000031 0.000005 -0.000001 -0.000000 9.533302 0.000395 0.000234 -144.136731 -9.802476 -29.669232 3.699986 0.000248 -0.000398 93.875896 2.486954 -2.663366 2.949998 0.000082 -0.000232 412.769259 7.219623 -3.583993 2.952868 -0.000047 0.000066 0.000003 0.000001 -0.000001 9.104472 -0.042707 -1.864883 -137.547729 -7.698745 -19.659707 3.149878 0.000299 -0.000169 93.654775 26.979039 -28.685343 2.949922 0.000130 -0.000172 54.530980 20.733282 -10.771364 2.644312 0.000037 0.000061 0.000002 -0.000004 0.000003 8.077749 -0.486552 -3.806041 -131.815411 -3.344604 -8.426780 3.599700 0.000148 0.014588 129.487464 54.993797 -95.873180 2.099881 0.000165 0.007508 66.541499 31.752808 -21.064331 2.125483 -0.000002 0.007509 -0.000001 -0.000002 -0.000001 -8.207786 -6.751667 -1.599560 -0.077001 -0.000003 0.000080 -0.000002 -44.370110 0.345938 0.153719 -0.000000 -0.000000 0.000000 -44.423679 -3.043532 -0.076700 0.000000 -0.000002 -0.000006 -8.728667 10.710559 -0.000009 -0.000000 -0.000000 -0.000001 -0.000679 9.278123 0.000000 -0.000000 -0.000000 8.207792 -6.751710 -1.599556 -0.074518 -0.000003 0.000081 -0.000002 -44.370014 0.346960 0.148822 0.000002 0.000000 -0.000001 -44.423664 -3.044403 -0.074314 0.000000 -0.000002 -0.000004 -8.728671 10.710558 0.000007 -0.000000 -0.000000 0.000000 -0.000680 9.278137 -0.000000 0.000000 -0.000001 
0.000006 104.270477 1.554256 0.000010 0.000003 -0.000113 -0.000005 10.181587 0.131522 0.000001 -0.000003 0.000084 -0.000000 9.893967 -1.470711 0.000001 0.000000 -0.000000 -0.000000 9.220802 -1.370642 0.000000 -0.000000 -0.000000 0.000001 16.740433 -2.049030 0.000000 -0.000000 -0.000000 0.000000 9.617859 1.685014 0.000000 0.000000 0.000000 0.000002 22.037384 7.501101 0.000000 -0.000000 0.000000 -4.569968 11.014880 -2.160881 0.000008 0.000001 -0.000038 -10.592884 -0.524734 -2.231957 70.883123 20.870999 -14.936362 -27.841513 0.000012 0.000534 -52.369950 113.903834 74.165124 -28.328817 0.000022 0.000032 -0.000322 -0.000044 0.000009 -2.464406 -1.573797 2.682338 -45.424661 -158.769427 -4.416387 -3.215242 -1.872492 1.924624 146.410419 33.679571 33.487359 -2.654970 -1.527854 1.513066 149.169883 27.590889 -27.257436 -2.018834 -1.152011 1.108058 -0.000000 -0.000001 0.000002 -9.108385 -0.517560 2.260144 105.027901 15.374652 -20.023487 -3.700071 0.000317 0.001538 101.659211 12.978067 -15.866497 -2.850086 0.000373 -0.000227 99.897111 10.405785 -12.363377 -2.772163 -0.000015 -0.000018 -0.000000 0.000000 -0.000000 -9.532601 0.000272 0.000274 98.687600 16.374586 -19.186435 -3.700069 0.000329 0.003992 97.833123 12.298691 -13.980870 -2.950056 0.000322 -0.001761 100.264595 11.283776 -13.483405 -2.946634 0.000003 -0.000158 0.000001 -0.000000 0.000001 -9.103706 -0.042760 -1.864846 98.148179 18.867996 -21.645679 -3.379334 0.000332 -0.000790 97.606552 9.349111 -10.693143 -2.889734 0.000375 0.000664 105.030537 6.120876 -8.034766 -2.638817 -0.000014 0.000937 -0.000001 -0.000000 -0.000003 -8.076767 -0.486387 -3.806007 91.354258 19.573493 -19.875024 -3.600046 0.000282 -0.003508 93.994850 7.937727 -8.131477 -2.100017 0.000333 -0.005453 97.770538 3.565415 -3.840845 -2.115765 -0.000055 -0.003678 0.000001 -0.000001 -0.000001 4.570446 11.014691 -2.160851 -0.000018 0.000010 -0.000021 10.592512 -0.524527 -2.232395 66.827759 -57.824320 40.040669 27.841698 -0.000080 -0.000064 243.173968 -68.406769 264.269445 28.328842 -0.000025 0.000004 0.000024 -0.000090 -0.000001 2.466163 -1.576162 2.681844 137.630853 171.905985 -168.862002 3.217818 -1.871982 1.916554 -67.649199 25.530009 22.381690 2.656035 -1.528760 1.514615 93.993525 145.722851 -145.438742 2.020895 -1.154062 1.115151 0.000001 0.000003 0.000004 9.109255 -0.517787 2.260096 -116.271007 -10.536716 -16.863840 3.699954 0.000276 -0.000088 243.455700 -9.647717 344.437069 2.849958 0.000286 0.000566 239.311278 -7.449496 346.955906 2.774882 -0.000045 -0.000037 0.000002 0.000003 0.000002 9.533352 0.000331 0.000272 -126.327586 -8.653434 -16.999405 3.699944 0.000303 -0.000020 228.442316 -7.742975 -17.105920 2.949955 0.000323 0.000132 585.545178 -7.392208 -17.500855 2.952870 -0.000033 0.000063 -0.000002 -0.000001 0.000001 9.104491 -0.042751 -1.864860 -124.069621 -6.620582 -12.437179 3.149981 0.000332 0.000264 230.573635 -3.488880 -7.380234 2.949941 0.000319 0.000254 226.137783 -3.775597 -8.853787 2.644320 0.000033 0.000057 -0.000000 0.000000 0.000002 8.077741 -0.486588 -3.806025 -121.070813 -7.105676 -13.238303 3.599954 0.000317 0.014956 232.655012 -0.050529 -0.948045 2.100021 0.000311 0.007899 224.622860 3.067829 6.418173 2.125517 -0.000031 0.007523 0.000001 -0.000001 0.000001 -8.207786 -6.751667 -1.599560 -0.077001 -0.000003 0.000080 -0.000002 -44.370110 0.345938 0.153719 -0.000000 -0.000000 0.000000 -44.423679 -3.043532 -0.076700 0.000000 -0.000002 -0.000006 -8.728667 10.710559 -0.000009 -0.000000 -0.000000 -0.000001 -0.000679 9.278123 0.000000 -0.000000 -0.000000 8.207792 -6.751710 -1.599556 -0.074518 -0.000003 0.000081 -0.000002 -44.370014 0.346960 0.148822 0.000002 0.000000 -0.000001 -44.423664 -3.044403 -0.074314 0.000000 -0.000002 -0.000004 -8.728671 10.710558 0.000007 -0.000000 -0.000000 0.000000 -0.000680 9.278137 -0.000000 0.000000 -0.000001 
0.000006 104.270477 1.554256 0.000010 0.000003 -0.000113 -0.000005 10.181587 0.131522 0.000001 -0.000003 0.000084 -0.000000 9.893967 -1.470711 0.000001 0.000000 -0.000000 -0.000000 9.220802 -1.370642 0.000000 -0.000000 -0.000000 0.000001 16.740433 -2.049030 0.000000 -0.000000 -0.000000 0.000000 9.617859 1.685014 0.000000 0.000000 0.000000 0.000002 22.037384 7.501101 0.000000 -0.000000 0.000000 -4.569968 11.014880 -2.160881 0.000008 0.000001 -0.000038 -10.592880 -0.524714 -2.231980 70.397592 15.666603 -11.085753 -27.841516 0.000027 0.000532 -52.222520 113.576859 73.642902 -28.328821 0.000021 0.000022 -0.000321 -0.000046 0.000007 -2.464396 -1.573808 2.682322 -46.271854 -159.640714 -6.304991 -3.215237 -1.872503 1.924623 146.504184 33.667792 33.084303 -2.654955 -1.527874 1.513054 149.094410 27.565805 -27.570193 -2.018826 -1.152000 1.108067 0.000002 -0.000002 0.000002 -9.108378 -0.517552 2.260157 104.297815 15.371703 -19.762879 -3.700078 0.000313 0.001543 101.920547 12.956829 -15.913644 -2.850060 0.000358 -0.000252 100.546347 10.416170 -12.517877 -2.772171 -0.000018 -0.000020 -0.000000 -0.000000 -0.000000 -9.532586 0.000273 0.000271 98.289537 16.431255 -19.119730 -3.700080 0.000321 0.003993 97.796233 12.423659 -14.114437 -2.950080 0.000322 -0.001790 100.092748 11.378019 -13.554778 -2.946618 0.000002 -0.000152 -0.000002 -0.000000 0.000000 -9.103706 -0.042770 -1.864846 97.793890 19.270670 -21.971563 -3.379328 0.000319 -0.000781 97.506298 9.830249 -11.222062 -2.889776 0.000353 0.000675 104.665867 6.431709 -8.384281 -2.638814 -0.000028 0.000936 0.000000 -0.000000 -0.000001 -8.076751 -0.486392 -3.806005 91.083865 20.072563 -20.290687 -3.600043 0.000288 -0.003502 93.388384 8.566830 -8.709949 -2.099992 0.000308 -0.005470 96.643208 3.999260 -4.251100 -2.115757 -0.000068 -0.003684 -0.000002 -0.000000 -0.000002 4.570446 11.014691 -2.160851 -0.000018 0.000010 -0.000021 10.592506 -0.524522 -2.232389 67.786732 -56.619253 39.787956 27.841703 -0.000082 -0.000071 242.473355 -68.694532 263.179292 28.328823 -0.000029 0.000034 0.000017 -0.000090 0.000000 2.466173 -1.576147 2.681872 136.114373 187.598604 -167.729898 3.217853 -1.871953 1.916568 -60.853208 11.417262 17.661390 2.656054 -1.528739 1.514628 109.235099 161.340024 -157.074475 2.020892 -1.154071 1.115147 0.000002 0.000002 -0.000001 9.109261 -0.517776 2.260093 -117.746000 -12.519676 -20.578537 3.699948 0.000250 -0.000085 243.998591 -11.297934 341.992544 2.849962 0.000272 0.000592 245.370940 -8.938029 346.111312 2.774877 -0.000031 -0.000036 -0.000004 -0.000000 0.000001 9.533368 0.000295 0.000264 -117.870869 -10.268904 -16.958299 3.699958 0.000253 0.000033 245.455306 -9.388971 -14.560408 2.949966 0.000238 0.000167 608.052291 -8.836894 -13.060531 2.952867 -0.000016 0.000059 -0.000000 -0.000002 -0.000000 9.104494 -0.042781 -1.864846 -116.310335 -8.853336 -14.211287 3.149960 0.000295 0.000281 244.052440 -8.426163 -13.435429 2.949947 0.000273 0.000307 246.936173 -8.196227 -12.372894 2.644318 0.000030 0.000057 0.000000 -0.000002 -0.000000 8.077736 -0.486619 -3.806027 -116.204713 -10.306182 -17.070734 3.599916 0.000308 0.014982 242.769020 -7.162281 -12.297369 2.099977 0.000295 0.007953 242.685719 -4.600056 -8.143768 2.125497 -0.000016 0.007517 0.000002 -0.000005 -0.000000 -8.207786 -6.751667 -1.599560 -0.077001 -0.000003 0.000080 -0.000002 -44.370110 0.345938 0.153719 -0.000000 -0.000000 0.000000 -44.423679 -3.043532 -0.076700 0.000000 -0.000002 -0.000006 -8.728667 10.710559 -0.000009 -0.000000 -0.000000 -0.000001 -0.000679 9.278123 0.000000 -0.000000 -0.000000 8.207792 -6.751710 -1.599556 -0.074518 -0.000003 0.000081 -0.000002 -44.370014 0.346960 0.148822 0.000002 0.000000 -0.000001 -44.423664 -3.044403 -0.074314 0.000000 -0.000002 -0.000004 -8.728671 10.710558 0.000007 -0.000000 -0.000000 0.000000 -0.000680 9.278137 -0.000000 0.000000 -0.000001 
